<?xml version="1.0" encoding="UTF-8" standalone="no"?>
<svg
   version="1.1"
   width="283.4646pt"
   height="283.4646pt"
   id="svg7"
   viewBox="0 0 283.4646 283.4646"
   sodipodi:docname="-cxOgHWInxWqTrlb6.cdr"
   xmlns:inkscape="http://www.inkscape.org/namespaces/inkscape"
   xmlns:sodipodi="http://sodipodi.sourceforge.net/DTD/sodipodi-0.dtd"
   xmlns="http://www.w3.org/2000/svg"
   xmlns:svg="http://www.w3.org/2000/svg">
  <defs
     id="defs11" />
  <sodipodi:namedview
     id="namedview9"
     pagecolor="#ffffff"
     bordercolor="#000000"
     borderopacity="0.25"
     inkscape:showpageshadow="2"
     inkscape:pageopacity="0.0"
     inkscape:pagecheckerboard="0"
     inkscape:deskcolor="#d1d1d1"
     inkscape:document-units="pt" />
  <g
     id="Layer1000">
    <path
       d="M 0,0 H 283.4646 V 283.4646 H 0 Z"
       style="fill:none"
       id="path2" />
    <path
       d="m 190.0295,103.8524 c 13.1647,-10.0279 23.0062,-24.1952 27.5768,-40.5635 2.9135,-10.4344 -4.9429,-20.7693 -15.7759,-20.7693 -7.3956,0 -13.7902,4.9808 -15.8049,12.0968 -5.2641,18.5941 -22.3627,32.2174 -42.6424,32.2174 -20.2807,0 -37.3793,-13.6233 -42.6434,-32.2174 -2.0146,-7.116 -8.4092,-12.0968 -15.8049,-12.0968 -10.833,0 -18.6894,10.3349 -15.7759,20.7693 4.3774,15.6764 13.5886,29.3355 25.925,39.2713 -18.4778,14.0767 -30.4066,36.3083 -30.4066,61.3291 0,42.5565 34.499,77.0555 77.0556,77.0555 42.5555,0 77.0545,-34.499 77.0545,-77.0555 0,-24.2689 -11.2227,-45.9129 -28.7579,-60.0369 z M 141.7329,208.204 v 0 c -24.4743,0 -44.3148,-19.8405 -44.3148,-44.3147 0,-24.4743 19.8405,-44.3147 44.3148,-44.3147 24.4737,0 44.3137,19.8404 44.3137,44.3147 0,24.4742 -19.84,44.3147 -44.3137,44.3147 z"
       style="fill:#f4943f;fill-rule:evenodd"
       id="path4" />
  </g>
</svg>
